<?xml version="1.0" encoding="iso-8859-1"?>
<!-- Generator: Adobe Illustrator 16.0.4, SVG Export Plug-In . SVG Version: 6.00 Build 0)  -->
<!DOCTYPE svg PUBLIC "-//W3C//DTD SVG 1.1//EN" "http://www.w3.org/Graphics/SVG/1.1/DTD/svg11.dtd">
<svg version="1.1" xmlns="http://www.w3.org/2000/svg" xmlns:xlink="http://www.w3.org/1999/xlink" x="0px" y="0px"
	 width="129.666px" height="139.333px" viewBox="0 0 129.666 139.333" style="enable-background:new 0 0 129.666 139.333;"
	 xml:space="preserve">
<g id="Laag_1">
</g>
<g id="Laag_2">
	<circle style="fill:#282A2F;" cx="227.833" cy="70.315" r="50.667"/>
	<g>
		<path style="fill:#D0D0C6;" d="M27.829,63.53l-0.284,1.261l3.633,0.819l-0.355,1.582l-9.926-2.237l0.644-2.854
			c0.204-0.907,0.624-1.548,1.257-1.922c0.634-0.375,1.427-0.454,2.382-0.239c0.677,0.153,1.216,0.394,1.617,0.723
			c0.401,0.328,0.684,0.753,0.849,1.274l4.43-0.747l0.096,0.021l-0.383,1.698L27.829,63.53z M25.889,64.417l0.287-1.275
			c0.09-0.397,0.028-0.734-0.184-1.012c-0.213-0.277-0.548-0.467-1.007-0.57c-0.468-0.105-0.859-0.086-1.174,0.06
			c-0.314,0.145-0.52,0.431-0.615,0.856l-0.287,1.271L25.889,64.417z"/>
		<path style="fill:#D0D0C6;" d="M33.515,53.432l-1.337,2.511l1.597,1.462l-0.812,1.522l-7.603-7.369l0.707-1.326l10.365,2.183
			l-0.811,1.521L33.515,53.432z M30.885,54.757l0.926-1.736l-3.827-0.917L30.885,54.757z"/>
		<path style="fill:#D0D0C6;" d="M37.513,45.442l-0.886,0.94l2.711,2.554l-1.112,1.181l-7.405-6.977l2.005-2.129
			c0.638-0.678,1.324-1.016,2.061-1.016s1.46,0.336,2.172,1.007c0.505,0.476,0.847,0.957,1.025,1.444
			c0.178,0.487,0.205,0.997,0.082,1.528l4.193,1.612l0.071,0.066l-1.194,1.268L37.513,45.442z M35.391,45.218l0.897-0.952
			c0.278-0.296,0.398-0.618,0.356-0.964c-0.042-0.347-0.234-0.681-0.576-1.004c-0.35-0.328-0.696-0.511-1.041-0.546
			s-0.667,0.106-0.966,0.424l-0.894,0.948L35.391,45.218z"/>
		<path style="fill:#D0D0C6;" d="M46.532,37.49l-2.629,1.671l1.463,2.3L48.45,39.5l0.904,1.421l-4.453,2.831l-5.46-8.586
			l4.443-2.825l0.912,1.433l-3.075,1.956l1.301,2.046l2.628-1.671L46.532,37.49z"/>
		<path style="fill:#D0D0C6;" d="M57.116,37.943l-1.692-10.032l2.719-0.459c0.941-0.159,1.695-0.046,2.262,0.338
			c0.565,0.384,0.924,1.026,1.075,1.927c0.084,0.491,0.059,0.94-0.074,1.348c-0.132,0.408-0.357,0.729-0.676,0.961
			c0.42,0.062,0.777,0.269,1.071,0.62c0.296,0.353,0.491,0.811,0.587,1.376c0.162,0.964,0.048,1.735-0.345,2.312
			s-1.029,0.943-1.908,1.102L57.116,37.943z M57.732,31.844l1.184-0.199c0.803-0.154,1.137-0.639,1-1.451
			c-0.077-0.455-0.235-0.766-0.473-0.931c-0.238-0.165-0.578-0.211-1.018-0.137l-1.12,0.189L57.732,31.844z M57.979,33.305
			l0.456,2.708l1.37-0.231c0.377-0.063,0.651-0.229,0.823-0.496c0.173-0.268,0.225-0.606,0.155-1.015
			c-0.155-0.919-0.602-1.323-1.339-1.213L57.979,33.305z"/>
		<path style="fill:#D0D0C6;" d="M69.485,33.427l-1.287-0.118l-0.34,3.709l-1.615-0.147l0.929-10.133l2.913,0.267
			c0.925,0.086,1.614,0.418,2.068,0.997c0.453,0.58,0.635,1.356,0.547,2.331c-0.064,0.691-0.232,1.257-0.506,1.697
			c-0.274,0.44-0.658,0.775-1.154,1.007l1.315,4.296l-0.008,0.097l-1.733-0.158L69.485,33.427z M68.354,31.617l1.303,0.12
			c0.405,0.037,0.732-0.067,0.978-0.314c0.247-0.246,0.393-0.604,0.436-1.072c0.044-0.478-0.027-0.862-0.211-1.156
			c-0.186-0.293-0.494-0.459-0.929-0.499l-1.298-0.118L68.354,31.617z"/>
		<path style="fill:#D0D0C6;" d="M81.319,35.649l-2.934-1.048l-0.915,2.567l3.441,1.229l-0.565,1.586l-4.97-1.773l3.42-9.583
			l4.959,1.771l-0.57,1.599l-3.433-1.225l-0.814,2.283l2.933,1.048L81.319,35.649z"/>
		<path style="fill:#D0D0C6;" d="M89.844,42.498l5.115-5.231l1.308,0.95l-7.396,7.202l-1.321-0.96l2.968-6.259l-5.04,4.752
			l-1.32-0.961l4.571-9.256l1.308,0.951l-3.388,6.471l5.298-5.082l1.11,0.808L89.844,42.498z"/>
		<path style="fill:#D0D0C6;" d="M93.333,50.205l-1.043-1.242l7.795-6.54l1.042,1.242L93.333,50.205z"/>
		<path style="fill:#D0D0C6;" d="M98.573,58.848l-0.747-1.439l4.488-5.885l-5.942,3.082l-0.746-1.439l9.031-4.685l0.747,1.439
			l-4.499,5.896l5.955-3.088l0.744,1.435L98.573,58.848z"/>
		<path style="fill:#D0D0C6;" d="M102.223,68.046c-0.5-0.197-0.926-0.532-1.274-1.006c-0.351-0.474-0.59-1.028-0.718-1.664
			c-0.134-0.668-0.064-1.292,0.211-1.871s0.745-1.078,1.405-1.496c0.662-0.419,1.478-0.729,2.443-0.932l0.679-0.136
			c0.995-0.201,1.884-0.245,2.664-0.132c0.781,0.112,1.413,0.375,1.897,0.786c0.485,0.411,0.793,0.946,0.926,1.604
			c0.185,0.915,0.047,1.687-0.413,2.316c-0.461,0.63-1.219,1.101-2.278,1.413l-0.312-1.547c0.557-0.187,0.943-0.427,1.158-0.723
			c0.217-0.295,0.282-0.654,0.197-1.079c-0.109-0.54-0.455-0.898-1.037-1.075c-0.582-0.178-1.393-0.163-2.43,0.043l-0.637,0.128
			c-1.046,0.211-1.805,0.524-2.277,0.939s-0.648,0.919-0.528,1.513c0.12,0.597,0.37,0.989,0.75,1.178l1.719-0.347l-0.291-1.447
			l1.514-0.305l0.612,3.037L102.223,68.046z"/>
	</g>
	<g>
		<path style="fill:#D0D0C6;" d="M44.932,106.461l-2.242-1.472l-1.288,1.962l2.632,1.728l-0.796,1.212l-3.8-2.493l4.809-7.326
			l3.792,2.488l-0.804,1.223l-2.623-1.723l-1.146,1.747l2.243,1.472L44.932,106.461z"/>
		<path style="fill:#D0D0C6;" d="M50.969,111.221c0.14-0.311,0.162-0.588,0.067-0.83c-0.095-0.243-0.321-0.557-0.679-0.939
			c-0.359-0.384-0.626-0.724-0.804-1.019c-0.48-0.807-0.534-1.626-0.16-2.455c0.194-0.433,0.462-0.774,0.803-1.028
			s0.729-0.396,1.168-0.428c0.438-0.032,0.877,0.051,1.315,0.249c0.441,0.198,0.788,0.479,1.04,0.842
			c0.253,0.361,0.39,0.774,0.41,1.237c0.022,0.463-0.075,0.935-0.292,1.413l-1.272-0.573c0.164-0.366,0.203-0.69,0.117-0.974
			c-0.088-0.283-0.293-0.498-0.615-0.644c-0.312-0.141-0.592-0.164-0.84-0.071c-0.25,0.092-0.438,0.277-0.562,0.555
			c-0.117,0.26-0.114,0.523,0.01,0.79c0.122,0.267,0.346,0.565,0.671,0.896c0.597,0.608,0.968,1.195,1.111,1.762
			s0.074,1.16-0.206,1.782c-0.312,0.691-0.758,1.143-1.34,1.354c-0.581,0.211-1.215,0.162-1.899-0.146
			c-0.477-0.214-0.858-0.521-1.148-0.922c-0.288-0.401-0.447-0.844-0.477-1.328c-0.028-0.483,0.072-0.983,0.306-1.499l1.278,0.575
			c-0.398,0.882-0.188,1.506,0.627,1.873c0.302,0.137,0.575,0.164,0.816,0.081C50.654,111.69,50.841,111.507,50.969,111.221z"/>
		<path style="fill:#D0D0C6;" d="M62.124,109.284l-2.029-0.447l-1.571,7.13l-1.365-0.302l1.573-7.129l-2.001-0.441l0.314-1.428
			l5.393,1.188L62.124,109.284z"/>
		<path style="fill:#D0D0C6;" d="M74.765,115.881l-4.587,0.747l-0.19-1.177l1.678-3.334c0.229-0.469,0.39-0.871,0.481-1.207
			s0.115-0.645,0.068-0.926c-0.062-0.384-0.188-0.674-0.374-0.869c-0.184-0.195-0.417-0.271-0.696-0.225
			c-0.3,0.048-0.515,0.221-0.645,0.517c-0.13,0.295-0.159,0.66-0.088,1.097l-1.333,0.217c-0.086-0.527-0.067-1.023,0.057-1.491
			c0.124-0.467,0.344-0.854,0.658-1.159c0.315-0.306,0.698-0.495,1.148-0.568c0.689-0.112,1.26,0.015,1.71,0.381
			c0.453,0.365,0.741,0.938,0.868,1.719c0.07,0.428,0.055,0.877-0.044,1.349c-0.1,0.471-0.311,1.036-0.63,1.694l-1.185,2.32
			l2.878-0.468L74.765,115.881z"/>
		<path style="fill:#D0D0C6;" d="M81.96,109.551c0.457,1.122,0.627,2.054,0.51,2.795c-0.117,0.74-0.522,1.252-1.216,1.534
			c-0.684,0.279-1.326,0.2-1.926-0.236c-0.601-0.437-1.125-1.197-1.577-2.282l-0.607-1.494c-0.462-1.134-0.631-2.067-0.506-2.803
			s0.53-1.243,1.214-1.521c0.685-0.279,1.326-0.201,1.925,0.233c0.6,0.434,1.125,1.193,1.575,2.279L81.96,109.551z M80.045,108.415
			c-0.273-0.674-0.544-1.134-0.812-1.384c-0.268-0.249-0.551-0.312-0.854-0.188c-0.293,0.119-0.449,0.354-0.471,0.702
			c-0.021,0.349,0.091,0.835,0.335,1.46l0.805,1.976c0.27,0.662,0.539,1.126,0.81,1.391s0.559,0.335,0.867,0.21
			c0.305-0.124,0.461-0.368,0.471-0.731c0.01-0.364-0.111-0.865-0.365-1.504L80.045,108.415z"/>
		<path style="fill:#D0D0C6;" d="M89.891,109.144l-1.135,0.724l-3.605-5.652l-1.008,1.407l-0.761-1.193l1.669-2.605l0.12-0.077
			L89.891,109.144z"/>
		<path style="fill:#D0D0C6;" d="M94.36,101.295c0.022,0.567-0.144,1.002-0.5,1.307c-0.457,0.389-0.993,0.498-1.613,0.327
			c-0.618-0.17-1.221-0.599-1.807-1.285c-0.374-0.437-0.641-0.899-0.806-1.391c-0.163-0.49-0.2-0.949-0.108-1.379
			c0.091-0.428,0.302-0.783,0.632-1.066c0.341-0.29,0.736-0.438,1.188-0.443c0.451-0.007,0.927,0.134,1.426,0.421
			c0.498,0.287,0.975,0.694,1.43,1.224l0.418,0.489c0.948,1.111,1.48,2.166,1.596,3.166c0.114,0.999-0.203,1.854-0.95,2.567
			l-0.247,0.219l-0.941-1.104l0.224-0.197C95.146,103.338,95.166,102.386,94.36,101.295z M93.248,101.375
			c0.165-0.141,0.26-0.317,0.285-0.528c0.025-0.213,0.002-0.422-0.068-0.63l-0.466-0.545c-0.382-0.448-0.746-0.74-1.089-0.874
			c-0.344-0.135-0.626-0.106-0.848,0.082c-0.205,0.177-0.271,0.441-0.195,0.797c0.074,0.355,0.269,0.717,0.581,1.083
			c0.311,0.363,0.629,0.605,0.957,0.729C92.732,101.613,93.014,101.574,93.248,101.375z"/>
	</g>
	<g>
		<path style="fill:#D0D0C7;" d="M67.001,126.396c-29.868,0-54.083-24.214-54.083-54.081s24.215-54.081,54.083-54.081
			c29.867,0,54.081,24.214,54.081,54.081S96.868,126.396,67.001,126.396z M67.001,19.149c-29.317,0-53.168,23.851-53.168,53.166
			s23.851,53.166,53.168,53.166c29.315,0,53.166-23.851,53.166-53.166S96.316,19.149,67.001,19.149z"/>
	</g>
	<g>
		<path style="fill:#D0D0C7;" d="M67.001,123.481c-28.214,0-51.168-22.953-51.168-51.166s22.954-51.166,51.168-51.166
			c28.213,0,51.166,22.953,51.166,51.166S95.214,123.481,67.001,123.481z M67.001,22.149c-27.663,0-50.168,22.504-50.168,50.166
			s22.505,50.166,50.168,50.166c27.662,0,50.166-22.504,50.166-50.166S94.663,22.149,67.001,22.149z"/>
	</g>
	<circle style="fill:#D0D0C7;" cx="67.008" cy="72.486" r="29.667"/>
	<g>
		<linearGradient id="SVGID_1_" gradientUnits="userSpaceOnUse" x1="59.1738" y1="63.3799" x2="74.8174" y2="63.3799">
			<stop  offset="0" style="stop-color:#DC911B"/>
			<stop  offset="1" style="stop-color:#CB4F24"/>
		</linearGradient>
		<path style="fill-rule:evenodd;clip-rule:evenodd;fill:url(#SVGID_1_);" d="M73.275,70.386c-0.598,1.081-1.38,2.113-2.337,3.095
			c-0.119,0.12-0.239,0.239-0.363,0.359c-0.862,0.812-1.839,1.52-2.767,2.268c-0.458,0.369-1.007,0.398-1.495,0.069
			c-0.708-0.473-1.38-0.971-2.014-1.51c-0.932-0.782-1.765-1.645-2.477-2.597c-0.907-1.206-1.625-2.562-2.093-4.106
			c-0.863-2.826-0.708-5.662,0.362-8.413c0.4-1.026,0.988-1.828,1.73-2.437c0.359-0.305,0.757-0.553,1.196-0.763
			c0.607-0.294,1.28-0.498,2.013-0.634c0.21-0.034,0.425-0.068,0.678-0.109v-1.285c0.006-1.939,1.207-3.449,3.091-3.889
			c0.069-0.014,0.129-0.054,0.194-0.079h0.952c0.848,0.469,1.141,1.066,0.861,1.765c-0.199,0.498-0.573,0.777-1.105,0.827
			c-0.938,0.085-1.396,0.568-1.396,1.51c-0.005,0.374,0,0.748,0,1.087c0.757,0.204,1.51,0.349,2.213,0.612
			c0.906,0.35,1.635,0.849,2.212,1.471c0.783,0.833,1.291,1.89,1.601,3.096c0.005,0.02,0.01,0.035,0.015,0.054
			C75.225,64.301,74.876,67.521,73.275,70.386z"/>
		<linearGradient id="SVGID_2_" gradientUnits="userSpaceOnUse" x1="62.5225" y1="91.3994" x2="71.5195" y2="91.3994">
			<stop  offset="0" style="stop-color:#DC911B"/>
			<stop  offset="1" style="stop-color:#CB4F24"/>
		</linearGradient>
		<path style="fill-rule:evenodd;clip-rule:evenodd;fill:url(#SVGID_2_);" d="M66.664,94.616c-1.566-1.097-3.074-2.252-4.142-3.778
			c1.534-0.902,3.037-1.785,4.52-2.655c1.422,0.832,2.925,1.712,4.478,2.619c-1.051,1.534-2.578,2.706-4.165,3.814
			C67.125,94.616,66.895,94.616,66.664,94.616z"/>
		<linearGradient id="SVGID_3_" gradientUnits="userSpaceOnUse" x1="75.4648" y1="65.5098" x2="83.8574" y2="65.5098">
			<stop  offset="0" style="stop-color:#DC911B"/>
			<stop  offset="1" style="stop-color:#CB4F24"/>
		</linearGradient>
		<path style="fill-rule:evenodd;clip-rule:evenodd;fill:url(#SVGID_3_);" d="M75.774,57.239c1.98,0.897,3.624,2.165,4.922,3.872
			c1.551,2.039,2.425,4.369,2.8,6.875c0.221,1.46,0.276,2.946,0.358,4.422c0.049,0.838-0.522,1.372-1.361,1.372
			c-1.919,0.001-3.713-0.546-5.462-1.272c-0.526-0.218-1.039-0.472-1.566-0.713C78.029,66.98,77.937,62.162,75.774,57.239z"/>
		<linearGradient id="SVGID_4_" gradientUnits="userSpaceOnUse" x1="50.1572" y1="65.5303" x2="58.5732" y2="65.5303">
			<stop  offset="0" style="stop-color:#DC911B"/>
			<stop  offset="1" style="stop-color:#CB4F24"/>
		</linearGradient>
		<path style="fill-rule:evenodd;clip-rule:evenodd;fill:url(#SVGID_4_);" d="M58.219,57.292c-2.141,4.868-2.231,9.688,0.354,14.542
			c-0.905,0.371-1.793,0.767-2.703,1.1c-1.426,0.522-2.891,0.865-4.422,0.847c-0.702-0.008-1.281-0.517-1.289-1.188
			c-0.037-3.139,0.374-6.195,1.714-9.074c1.276-2.736,3.275-4.769,5.987-6.098c0.103-0.052,0.209-0.096,0.313-0.138
			C58.195,57.274,58.227,57.293,58.219,57.292z"/>
		<linearGradient id="SVGID_5_" gradientUnits="userSpaceOnUse" x1="52.1436" y1="77.8125" x2="63.0674" y2="77.8125">
			<stop  offset="0" style="stop-color:#DC911B"/>
			<stop  offset="1" style="stop-color:#CB4F24"/>
		</linearGradient>
		<path style="fill-rule:evenodd;clip-rule:evenodd;fill:url(#SVGID_5_);" d="M59.774,74.054c1.137,1.14,2.198,2.201,3.293,3.297
			c-0.353,0.281-0.859,0.729-1.407,1.113c-2.115,1.483-4.414,2.562-6.97,3.046c-1.165,0.221-1.785-0.142-1.997-1.295
			c-0.231-1.267-0.366-2.552-0.55-3.887C55.009,76.092,57.561,75.189,59.774,74.054z"/>
		<linearGradient id="SVGID_6_" gradientUnits="userSpaceOnUse" x1="70.834" y1="77.8115" x2="81.7783" y2="77.8115">
			<stop  offset="0" style="stop-color:#DC911B"/>
			<stop  offset="1" style="stop-color:#CB4F24"/>
		</linearGradient>
		<path style="fill-rule:evenodd;clip-rule:evenodd;fill:url(#SVGID_6_);" d="M81.778,76.371c-0.023,0.529-0.023,1.111-0.1,1.686
			c-0.104,0.797-0.244,1.589-0.408,2.377c-0.186,0.843-0.763,1.286-1.615,1.106c-3.284-0.688-6.27-2.033-8.807-4.281
			c-0.004-0.005-0.01-0.01-0.015-0.016c0.005,0,0.005,0,0.011,0.006c0.836-0.883,1.649-1.744,2.467-2.582
			c0.179-0.189,0.363-0.379,0.548-0.568c0.079-0.079,0.344-0.069,0.468-0.005c0.25,0.125,0.499,0.245,0.748,0.359
			c1.315,0.607,2.666,1.111,4.082,1.435C79.994,76.083,80.852,76.202,81.778,76.371z"/>
		<linearGradient id="SVGID_7_" gradientUnits="userSpaceOnUse" x1="62.085" y1="82.7363" x2="71.9688" y2="82.7363">
			<stop  offset="0" style="stop-color:#DC911B"/>
			<stop  offset="1" style="stop-color:#CB4F24"/>
		</linearGradient>
		<path style="fill-rule:evenodd;clip-rule:evenodd;fill:url(#SVGID_7_);" d="M71.969,81.442c-0.706,0.955-1.438,2.003-2.233,2.995
			c-0.539,0.675-1.156,1.287-1.766,1.896c-0.553,0.552-1.277,0.595-1.822,0.085c-1.597-1.491-2.964-3.17-4.062-5.062
			c0.643-0.471,1.279-0.911,1.885-1.394c0.449-0.359,0.844-0.784,1.286-1.151c0.112-0.092,0.342-0.144,0.471-0.094
			c0.85,0.31,1.684,0.317,2.531,0.006c0.117-0.044,0.314-0.026,0.408,0.049C69.732,79.618,70.786,80.482,71.969,81.442z"/>
		<linearGradient id="SVGID_8_" gradientUnits="userSpaceOnUse" x1="55.7441" y1="85.9561" x2="63.3301" y2="85.9561">
			<stop  offset="0" style="stop-color:#DC911B"/>
			<stop  offset="1" style="stop-color:#CB4F24"/>
		</linearGradient>
		<path style="fill-rule:evenodd;clip-rule:evenodd;fill:url(#SVGID_8_);" d="M55.744,83.892c1.368-0.467,2.692-0.918,3.922-1.338
			c1.22,1.627,2.424,3.233,3.664,4.889c-0.405,0.198-0.868,0.486-1.371,0.663c-1.216,0.43-2.446,0.825-3.682,1.196
			c-0.673,0.201-1.361-0.151-1.559-0.814C56.273,86.988,55.875,85.474,55.744,83.892z"/>
		<linearGradient id="SVGID_9_" gradientUnits="userSpaceOnUse" x1="70.626" y1="85.9268" x2="78.3584" y2="85.9268">
			<stop  offset="0" style="stop-color:#DC911B"/>
			<stop  offset="1" style="stop-color:#CB4F24"/>
		</linearGradient>
		<path style="fill-rule:evenodd;clip-rule:evenodd;fill:url(#SVGID_9_);" d="M70.626,87.363c0.52-0.609,1.045-1.159,1.493-1.769
			c0.682-0.924,1.312-1.885,1.956-2.835c0.108-0.16,0.164-0.311,0.423-0.213c1.245,0.465,2.501,0.908,3.86,1.397
			c-0.212,1.009-0.433,2.083-0.668,3.153c-0.088,0.406-0.206,0.805-0.318,1.204c-0.23,0.822-0.902,1.194-1.728,0.974
			c-1.498-0.404-2.979-0.849-4.364-1.562C71.067,87.603,70.857,87.487,70.626,87.363z"/>
	</g>
	<circle style="fill-rule:evenodd;clip-rule:evenodd;fill:#282A2F;" cx="106.415" cy="75.917" r="3.25"/>
	<circle style="fill-rule:evenodd;clip-rule:evenodd;fill:#282A2F;" cx="26.415" cy="75.917" r="3.25"/>
	<g>
		<path style="fill:#D0D0C6;" d="M188.662,61.53l-0.284,1.261l3.633,0.819l-0.355,1.582l-9.926-2.237l0.644-2.854
			c0.204-0.907,0.624-1.548,1.257-1.922c0.634-0.375,1.427-0.454,2.382-0.239c0.677,0.153,1.216,0.394,1.617,0.723
			c0.401,0.328,0.684,0.753,0.849,1.274l4.43-0.747l0.096,0.021l-0.383,1.698L188.662,61.53z M186.722,62.417l0.287-1.275
			c0.09-0.397,0.028-0.734-0.184-1.012c-0.213-0.277-0.548-0.467-1.007-0.57c-0.468-0.105-0.859-0.086-1.174,0.06
			c-0.314,0.145-0.52,0.431-0.615,0.856l-0.287,1.271L186.722,62.417z"/>
		<path style="fill:#D0D0C6;" d="M194.348,51.432l-1.337,2.511l1.597,1.462l-0.812,1.522l-7.603-7.369l0.707-1.326l10.365,2.183
			l-0.811,1.521L194.348,51.432z M191.718,52.757l0.926-1.736l-3.827-0.917L191.718,52.757z"/>
		<path style="fill:#D0D0C6;" d="M198.346,43.442l-0.886,0.94l2.711,2.554l-1.112,1.181l-7.405-6.977l2.005-2.129
			c0.638-0.678,1.324-1.016,2.061-1.016s1.46,0.336,2.172,1.007c0.505,0.476,0.847,0.957,1.025,1.444
			c0.178,0.487,0.205,0.997,0.082,1.528l4.193,1.612l0.071,0.066l-1.194,1.268L198.346,43.442z M196.224,43.218l0.897-0.952
			c0.278-0.296,0.398-0.618,0.356-0.964c-0.042-0.347-0.234-0.681-0.576-1.004c-0.35-0.328-0.696-0.511-1.041-0.546
			s-0.667,0.106-0.966,0.424l-0.894,0.948L196.224,43.218z"/>
		<path style="fill:#D0D0C6;" d="M207.365,35.49l-2.629,1.671l1.463,2.3l3.084-1.961l0.904,1.421l-4.453,2.831l-5.46-8.586
			l4.443-2.825l0.912,1.433l-3.075,1.956l1.301,2.046l2.628-1.671L207.365,35.49z"/>
		<path style="fill:#D0D0C6;" d="M217.949,35.943l-1.692-10.032l2.719-0.459c0.941-0.159,1.695-0.046,2.262,0.338
			c0.565,0.384,0.924,1.026,1.075,1.927c0.084,0.491,0.059,0.94-0.074,1.348c-0.132,0.408-0.357,0.729-0.676,0.961
			c0.42,0.062,0.777,0.269,1.071,0.62c0.296,0.353,0.491,0.811,0.587,1.376c0.162,0.964,0.048,1.735-0.345,2.312
			s-1.029,0.943-1.908,1.102L217.949,35.943z M218.565,29.844l1.184-0.199c0.803-0.154,1.137-0.639,1-1.451
			c-0.077-0.455-0.235-0.766-0.473-0.931c-0.238-0.165-0.578-0.211-1.018-0.137l-1.12,0.189L218.565,29.844z M218.812,31.305
			l0.456,2.708l1.37-0.231c0.377-0.063,0.651-0.229,0.823-0.496c0.173-0.268,0.225-0.606,0.155-1.015
			c-0.155-0.919-0.602-1.323-1.339-1.213L218.812,31.305z"/>
		<path style="fill:#D0D0C6;" d="M230.349,31.43l-1.287-0.119l-0.343,3.709l-1.615-0.149l0.938-10.131l2.912,0.27
			c0.924,0.085,1.614,0.418,2.067,0.998s0.634,1.357,0.545,2.331c-0.064,0.691-0.233,1.257-0.507,1.697
			c-0.274,0.44-0.659,0.775-1.155,1.005l1.313,4.298l-0.01,0.097l-1.733-0.16L230.349,31.43z M229.218,29.62l1.303,0.12
			c0.405,0.038,0.732-0.066,0.978-0.312c0.248-0.246,0.393-0.604,0.437-1.072c0.044-0.478-0.026-0.863-0.21-1.156
			c-0.186-0.293-0.494-0.46-0.928-0.5l-1.298-0.119L229.218,29.62z"/>
		<path style="fill:#D0D0C6;" d="M242.152,33.649l-2.934-1.048l-0.915,2.567l3.441,1.229l-0.565,1.586l-4.97-1.773l3.42-9.583
			l4.959,1.771l-0.57,1.599l-3.433-1.225l-0.814,2.283l2.933,1.048L242.152,33.649z"/>
		<path style="fill:#D0D0C6;" d="M250.677,40.498l5.115-5.231l1.308,0.95l-7.396,7.202l-1.321-0.96l2.968-6.259l-5.04,4.752
			l-1.32-0.961l4.571-9.256l1.308,0.951l-3.388,6.471l5.298-5.082l1.11,0.808L250.677,40.498z"/>
		<path style="fill:#D0D0C6;" d="M254.166,48.205l-1.043-1.242l7.795-6.54l1.042,1.242L254.166,48.205z"/>
		<path style="fill:#D0D0C6;" d="M259.406,56.848l-0.747-1.439l4.488-5.885l-5.942,3.082l-0.746-1.439l9.031-4.685l0.747,1.439
			l-4.499,5.896l5.955-3.088l0.744,1.435L259.406,56.848z"/>
		<path style="fill:#D0D0C6;" d="M263.056,66.046c-0.5-0.197-0.926-0.532-1.274-1.006c-0.351-0.474-0.59-1.028-0.718-1.664
			c-0.134-0.668-0.064-1.292,0.211-1.871s0.745-1.078,1.405-1.496c0.662-0.419,1.478-0.729,2.443-0.932l0.679-0.136
			c0.995-0.201,1.884-0.245,2.664-0.132c0.781,0.112,1.413,0.375,1.897,0.786c0.485,0.411,0.793,0.946,0.926,1.604
			c0.185,0.915,0.047,1.687-0.413,2.316c-0.461,0.63-1.219,1.101-2.278,1.413l-0.312-1.547c0.557-0.187,0.943-0.427,1.158-0.723
			c0.217-0.295,0.282-0.654,0.197-1.079c-0.109-0.54-0.455-0.898-1.037-1.075c-0.582-0.178-1.393-0.163-2.43,0.043l-0.637,0.128
			c-1.046,0.211-1.805,0.524-2.277,0.939s-0.648,0.919-0.528,1.513c0.12,0.597,0.37,0.989,0.75,1.178l1.719-0.347l-0.291-1.447
			l1.514-0.305l0.612,3.037L263.056,66.046z"/>
	</g>
	<g>
		<path style="fill:#D0D0C6;" d="M205.765,104.461l-2.242-1.472l-1.288,1.962l2.632,1.728l-0.796,1.212l-3.8-2.493l4.809-7.326
			l3.792,2.488l-0.804,1.223l-2.623-1.723l-1.146,1.747l2.243,1.472L205.765,104.461z"/>
		<path style="fill:#D0D0C6;" d="M211.802,109.221c0.14-0.311,0.162-0.588,0.067-0.83c-0.095-0.243-0.321-0.557-0.679-0.939
			c-0.359-0.384-0.626-0.724-0.804-1.019c-0.48-0.807-0.534-1.626-0.16-2.455c0.194-0.433,0.462-0.774,0.803-1.028
			s0.729-0.396,1.168-0.428c0.438-0.032,0.877,0.051,1.315,0.249c0.441,0.198,0.788,0.479,1.04,0.842
			c0.253,0.361,0.39,0.774,0.41,1.237c0.022,0.463-0.075,0.935-0.292,1.413l-1.272-0.573c0.164-0.366,0.203-0.69,0.117-0.974
			c-0.088-0.283-0.293-0.498-0.615-0.644c-0.312-0.141-0.592-0.164-0.84-0.071c-0.25,0.092-0.438,0.277-0.562,0.555
			c-0.117,0.26-0.114,0.523,0.01,0.79c0.122,0.267,0.346,0.565,0.671,0.896c0.597,0.608,0.968,1.195,1.111,1.762
			s0.074,1.16-0.206,1.782c-0.312,0.691-0.758,1.143-1.34,1.354c-0.581,0.211-1.215,0.162-1.899-0.146
			c-0.477-0.214-0.858-0.521-1.148-0.922c-0.288-0.401-0.447-0.844-0.477-1.328c-0.028-0.483,0.072-0.983,0.306-1.499l1.278,0.575
			c-0.398,0.882-0.188,1.506,0.627,1.873c0.302,0.137,0.575,0.164,0.816,0.081C211.487,109.69,211.674,109.507,211.802,109.221z"/>
		<path style="fill:#D0D0C6;" d="M222.957,107.284l-2.029-0.447l-1.571,7.13l-1.365-0.302l1.573-7.129l-2.001-0.441l0.314-1.428
			l5.393,1.188L222.957,107.284z"/>
		<path style="fill:#D0D0C6;" d="M235.598,113.881l-4.587,0.747l-0.19-1.177l1.678-3.334c0.229-0.469,0.39-0.871,0.481-1.207
			s0.115-0.645,0.068-0.926c-0.062-0.384-0.188-0.674-0.374-0.869c-0.184-0.195-0.417-0.271-0.696-0.225
			c-0.3,0.048-0.515,0.221-0.645,0.517c-0.13,0.295-0.159,0.66-0.088,1.097l-1.333,0.217c-0.086-0.527-0.067-1.023,0.057-1.491
			c0.124-0.467,0.344-0.854,0.658-1.159c0.315-0.306,0.698-0.495,1.148-0.568c0.689-0.112,1.26,0.015,1.71,0.381
			c0.453,0.365,0.741,0.938,0.868,1.719c0.07,0.428,0.055,0.877-0.044,1.349c-0.1,0.471-0.311,1.036-0.63,1.694l-1.185,2.32
			l2.878-0.468L235.598,113.881z"/>
		<path style="fill:#D0D0C6;" d="M242.793,107.551c0.457,1.122,0.627,2.054,0.51,2.795c-0.117,0.74-0.522,1.252-1.216,1.534
			c-0.684,0.279-1.326,0.2-1.926-0.236c-0.601-0.437-1.125-1.197-1.577-2.282l-0.607-1.494c-0.462-1.134-0.631-2.067-0.506-2.803
			s0.53-1.243,1.214-1.521c0.685-0.279,1.326-0.201,1.925,0.233c0.6,0.434,1.125,1.193,1.575,2.279L242.793,107.551z
			 M240.878,106.415c-0.273-0.674-0.544-1.134-0.812-1.384c-0.268-0.249-0.551-0.312-0.854-0.188
			c-0.293,0.119-0.449,0.354-0.471,0.702c-0.021,0.349,0.091,0.835,0.335,1.46l0.805,1.976c0.27,0.662,0.539,1.126,0.81,1.391
			s0.559,0.335,0.867,0.21c0.305-0.124,0.461-0.368,0.471-0.731c0.01-0.364-0.111-0.865-0.365-1.504L240.878,106.415z"/>
		<path style="fill:#D0D0C6;" d="M250.724,107.144l-1.135,0.724l-3.605-5.652l-1.008,1.407l-0.761-1.193l1.669-2.605l0.12-0.077
			L250.724,107.144z"/>
		<path style="fill:#D0D0C6;" d="M255.193,99.295c0.022,0.567-0.144,1.002-0.5,1.307c-0.457,0.389-0.993,0.498-1.613,0.327
			c-0.618-0.17-1.221-0.599-1.807-1.285c-0.374-0.437-0.641-0.899-0.806-1.391c-0.163-0.49-0.2-0.949-0.108-1.379
			c0.091-0.428,0.302-0.783,0.632-1.066c0.341-0.29,0.736-0.438,1.188-0.443c0.451-0.007,0.927,0.134,1.426,0.421
			c0.498,0.287,0.975,0.694,1.43,1.224l0.418,0.489c0.948,1.111,1.48,2.166,1.596,3.166c0.114,0.999-0.203,1.854-0.95,2.567
			l-0.247,0.219l-0.941-1.104l0.224-0.197C255.979,101.338,255.999,100.386,255.193,99.295z M254.081,99.375
			c0.165-0.141,0.26-0.317,0.285-0.528c0.025-0.213,0.002-0.422-0.068-0.63l-0.466-0.545c-0.382-0.448-0.746-0.74-1.089-0.874
			c-0.344-0.135-0.626-0.106-0.848,0.082c-0.205,0.177-0.271,0.441-0.195,0.797c0.074,0.355,0.269,0.717,0.581,1.083
			c0.311,0.363,0.629,0.605,0.957,0.729C253.565,99.613,253.847,99.574,254.081,99.375z"/>
	</g>
	<g>
		<linearGradient id="SVGID_10_" gradientUnits="userSpaceOnUse" x1="197.6738" y1="70.4863" x2="258.0078" y2="70.4863">
			<stop  offset="0" style="stop-color:#DC911B"/>
			<stop  offset="1" style="stop-color:#CB4F24"/>
		</linearGradient>
		<path style="fill:url(#SVGID_10_);" d="M227.84,100.652c-16.634,0-30.166-13.532-30.166-30.166S211.206,40.32,227.84,40.32
			c16.635,0,30.168,13.532,30.168,30.166S244.475,100.652,227.84,100.652z M227.84,41.32c-16.082,0-29.166,13.084-29.166,29.166
			s13.084,29.166,29.166,29.166c16.083,0,29.168-13.084,29.168-29.166S243.923,41.32,227.84,41.32z"/>
	</g>
	<g>
		<linearGradient id="SVGID_11_" gradientUnits="userSpaceOnUse" x1="220.0068" y1="61.3799" x2="235.6504" y2="61.3799">
			<stop  offset="0" style="stop-color:#DC911B"/>
			<stop  offset="1" style="stop-color:#CB4F24"/>
		</linearGradient>
		<path style="fill-rule:evenodd;clip-rule:evenodd;fill:url(#SVGID_11_);" d="M234.108,68.386c-0.598,1.081-1.38,2.113-2.337,3.095
			c-0.119,0.12-0.239,0.239-0.363,0.359c-0.862,0.812-1.839,1.52-2.767,2.268c-0.458,0.369-1.007,0.398-1.495,0.069
			c-0.708-0.473-1.38-0.971-2.014-1.51c-0.932-0.782-1.765-1.645-2.477-2.597c-0.907-1.206-1.625-2.562-2.093-4.106
			c-0.863-2.826-0.708-5.662,0.362-8.413c0.4-1.026,0.988-1.828,1.73-2.437c0.359-0.305,0.757-0.553,1.196-0.763
			c0.607-0.294,1.28-0.498,2.013-0.634c0.21-0.034,0.425-0.068,0.678-0.109v-1.285c0.006-1.939,1.207-3.449,3.091-3.889
			c0.069-0.014,0.129-0.054,0.194-0.079h0.952c0.848,0.469,1.141,1.066,0.861,1.765c-0.199,0.498-0.573,0.777-1.105,0.827
			c-0.938,0.085-1.396,0.568-1.396,1.51c-0.005,0.374,0,0.748,0,1.087c0.757,0.204,1.51,0.349,2.213,0.612
			c0.906,0.35,1.635,0.849,2.212,1.471c0.783,0.833,1.291,1.89,1.601,3.096c0.005,0.02,0.01,0.035,0.015,0.054
			C236.058,62.301,235.709,65.521,234.108,68.386z"/>
		<linearGradient id="SVGID_12_" gradientUnits="userSpaceOnUse" x1="223.3555" y1="89.3994" x2="232.3525" y2="89.3994">
			<stop  offset="0" style="stop-color:#DC911B"/>
			<stop  offset="1" style="stop-color:#CB4F24"/>
		</linearGradient>
		<path style="fill-rule:evenodd;clip-rule:evenodd;fill:url(#SVGID_12_);" d="M227.497,92.616
			c-1.566-1.097-3.074-2.252-4.142-3.778c1.534-0.902,3.037-1.785,4.52-2.655c1.422,0.832,2.925,1.712,4.478,2.619
			c-1.051,1.534-2.578,2.706-4.165,3.814C227.958,92.616,227.728,92.616,227.497,92.616z"/>
		<linearGradient id="SVGID_13_" gradientUnits="userSpaceOnUse" x1="236.2979" y1="63.5098" x2="244.6904" y2="63.5098">
			<stop  offset="0" style="stop-color:#DC911B"/>
			<stop  offset="1" style="stop-color:#CB4F24"/>
		</linearGradient>
		<path style="fill-rule:evenodd;clip-rule:evenodd;fill:url(#SVGID_13_);" d="M236.607,55.239c1.98,0.897,3.624,2.165,4.922,3.872
			c1.551,2.039,2.425,4.369,2.8,6.875c0.221,1.46,0.276,2.946,0.358,4.422c0.049,0.838-0.522,1.372-1.361,1.372
			c-1.919,0.001-3.713-0.546-5.462-1.272c-0.526-0.218-1.039-0.472-1.566-0.713C238.862,64.98,238.77,60.162,236.607,55.239z"/>
		<linearGradient id="SVGID_14_" gradientUnits="userSpaceOnUse" x1="210.9902" y1="63.5303" x2="219.4062" y2="63.5303">
			<stop  offset="0" style="stop-color:#DC911B"/>
			<stop  offset="1" style="stop-color:#CB4F24"/>
		</linearGradient>
		<path style="fill-rule:evenodd;clip-rule:evenodd;fill:url(#SVGID_14_);" d="M219.052,55.292
			c-2.141,4.868-2.231,9.688,0.354,14.542c-0.905,0.371-1.793,0.767-2.703,1.1c-1.426,0.522-2.891,0.865-4.422,0.847
			c-0.702-0.008-1.281-0.517-1.289-1.188c-0.037-3.139,0.374-6.195,1.714-9.074c1.276-2.736,3.275-4.769,5.987-6.098
			c0.103-0.052,0.209-0.096,0.313-0.138C219.028,55.274,219.06,55.293,219.052,55.292z"/>
		<linearGradient id="SVGID_15_" gradientUnits="userSpaceOnUse" x1="212.9766" y1="75.8125" x2="223.9004" y2="75.8125">
			<stop  offset="0" style="stop-color:#DC911B"/>
			<stop  offset="1" style="stop-color:#CB4F24"/>
		</linearGradient>
		<path style="fill-rule:evenodd;clip-rule:evenodd;fill:url(#SVGID_15_);" d="M220.607,72.054c1.137,1.14,2.198,2.201,3.293,3.297
			c-0.353,0.281-0.859,0.729-1.407,1.113c-2.115,1.483-4.414,2.562-6.97,3.046c-1.165,0.221-1.785-0.142-1.997-1.295
			c-0.231-1.267-0.366-2.552-0.55-3.887C215.842,74.092,218.394,73.189,220.607,72.054z"/>
		<linearGradient id="SVGID_16_" gradientUnits="userSpaceOnUse" x1="231.667" y1="75.8115" x2="242.6113" y2="75.8115">
			<stop  offset="0" style="stop-color:#DC911B"/>
			<stop  offset="1" style="stop-color:#CB4F24"/>
		</linearGradient>
		<path style="fill-rule:evenodd;clip-rule:evenodd;fill:url(#SVGID_16_);" d="M242.611,74.371c-0.023,0.529-0.023,1.111-0.1,1.686
			c-0.104,0.797-0.244,1.589-0.408,2.377c-0.186,0.843-0.763,1.286-1.615,1.106c-3.284-0.688-6.27-2.033-8.807-4.281
			c-0.004-0.005-0.01-0.01-0.015-0.016c0.005,0,0.005,0,0.011,0.006c0.836-0.883,1.649-1.744,2.467-2.582
			c0.179-0.189,0.363-0.379,0.548-0.568c0.079-0.079,0.344-0.069,0.468-0.005c0.25,0.125,0.499,0.245,0.748,0.359
			c1.315,0.607,2.666,1.111,4.082,1.435C240.827,74.083,241.685,74.202,242.611,74.371z"/>
		<linearGradient id="SVGID_17_" gradientUnits="userSpaceOnUse" x1="222.918" y1="80.7363" x2="232.8018" y2="80.7363">
			<stop  offset="0" style="stop-color:#DC911B"/>
			<stop  offset="1" style="stop-color:#CB4F24"/>
		</linearGradient>
		<path style="fill-rule:evenodd;clip-rule:evenodd;fill:url(#SVGID_17_);" d="M232.802,79.442
			c-0.706,0.955-1.438,2.003-2.233,2.995c-0.539,0.675-1.156,1.287-1.766,1.896c-0.553,0.552-1.277,0.595-1.822,0.085
			c-1.597-1.491-2.964-3.17-4.062-5.062c0.643-0.471,1.279-0.911,1.885-1.394c0.449-0.359,0.844-0.784,1.286-1.151
			c0.112-0.092,0.342-0.144,0.471-0.094c0.85,0.31,1.684,0.317,2.531,0.006c0.117-0.044,0.314-0.026,0.408,0.049
			C230.565,77.618,231.619,78.482,232.802,79.442z"/>
		<linearGradient id="SVGID_18_" gradientUnits="userSpaceOnUse" x1="216.5771" y1="83.9561" x2="224.1631" y2="83.9561">
			<stop  offset="0" style="stop-color:#DC911B"/>
			<stop  offset="1" style="stop-color:#CB4F24"/>
		</linearGradient>
		<path style="fill-rule:evenodd;clip-rule:evenodd;fill:url(#SVGID_18_);" d="M216.577,81.892c1.368-0.467,2.692-0.918,3.922-1.338
			c1.22,1.627,2.424,3.233,3.664,4.889c-0.405,0.198-0.868,0.486-1.371,0.663c-1.216,0.43-2.446,0.825-3.682,1.196
			c-0.673,0.201-1.361-0.151-1.559-0.814C217.106,84.988,216.708,83.474,216.577,81.892z"/>
		<linearGradient id="SVGID_19_" gradientUnits="userSpaceOnUse" x1="231.459" y1="83.9268" x2="239.1914" y2="83.9268">
			<stop  offset="0" style="stop-color:#DC911B"/>
			<stop  offset="1" style="stop-color:#CB4F24"/>
		</linearGradient>
		<path style="fill-rule:evenodd;clip-rule:evenodd;fill:url(#SVGID_19_);" d="M231.459,85.363c0.52-0.609,1.045-1.159,1.493-1.769
			c0.682-0.924,1.312-1.885,1.956-2.835c0.108-0.16,0.164-0.311,0.423-0.213c1.245,0.465,2.501,0.908,3.86,1.397
			c-0.212,1.009-0.433,2.083-0.668,3.153c-0.088,0.406-0.206,0.805-0.318,1.204c-0.23,0.822-0.902,1.194-1.728,0.974
			c-1.498-0.404-2.979-0.849-4.364-1.562C231.9,85.603,231.69,85.487,231.459,85.363z"/>
	</g>
	<linearGradient id="SVGID_20_" gradientUnits="userSpaceOnUse" x1="263.998" y1="73.917" x2="270.498" y2="73.917">
		<stop  offset="0" style="stop-color:#DC911B"/>
		<stop  offset="1" style="stop-color:#CB4F24"/>
	</linearGradient>
	<circle style="fill-rule:evenodd;clip-rule:evenodd;fill:url(#SVGID_20_);" cx="267.248" cy="73.917" r="3.25"/>
	<linearGradient id="SVGID_21_" gradientUnits="userSpaceOnUse" x1="183.998" y1="73.917" x2="190.498" y2="73.917">
		<stop  offset="0" style="stop-color:#DC911B"/>
		<stop  offset="1" style="stop-color:#CB4F24"/>
	</linearGradient>
	<circle style="fill-rule:evenodd;clip-rule:evenodd;fill:url(#SVGID_21_);" cx="187.248" cy="73.917" r="3.25"/>
</g>
</svg>
